<svg xmlns="http://www.w3.org/2000/svg" width="1024" height="768" viewBox="0 0 1024 768">
  <rect width="1024" height="768" fill="#132b52"/>
  <circle cx="664" cy="124" r="1" fill="#ffffff" opacity="0.9"/>
<circle cx="291" cy="260" r="1" fill="#ffffff" opacity="0.6"/>
<circle cx="764" cy="114" r="3" fill="#ffffff" opacity="0.9"/>
<circle cx="923" cy="568" r="1" fill="#ffffff" opacity="0.9"/>
<circle cx="442" cy="42" r="1" fill="#ffffff" opacity="0.6"/>
<circle cx="233" cy="248" r="2" fill="#ffffff" opacity="0.9"/>
<circle cx="37" cy="584" r="1" fill="#ffffff" opacity="0.9"/>
<circle cx="675" cy="728" r="2" fill="#ffffff" opacity="0.75"/>
<circle cx="235" cy="469" r="2" fill="#ffffff" opacity="0.75"/>
<circle cx="838" cy="16" r="1" fill="#ffffff" opacity="0.9"/>
<circle cx="442" cy="358" r="1" fill="#ffffff" opacity="0.6"/>
<circle cx="230" cy="354" r="1" fill="#ffffff" opacity="0.6"/>
<circle cx="399" cy="109" r="1" fill="#ffffff" opacity="0.75"/>
<circle cx="628" cy="280" r="1" fill="#ffffff" opacity="0.9"/>
<circle cx="480" cy="559" r="1" fill="#ffffff" opacity="0.75"/>
<circle cx="90" cy="575" r="1" fill="#ffffff" opacity="0.9"/>
<circle cx="643" cy="380" r="2" fill="#ffffff" opacity="0.6"/>
<circle cx="731" cy="81" r="1" fill="#ffffff" opacity="0.9"/>
<circle cx="243" cy="306" r="1" fill="#ffffff" opacity="0.6"/>
<circle cx="897" cy="113" r="2" fill="#ffffff" opacity="0.75"/>
<circle cx="474" cy="660" r="1" fill="#ffffff" opacity="0.6"/>
<circle cx="389" cy="373" r="1" fill="#ffffff" opacity="0.9"/>
<circle cx="283" cy="728" r="3" fill="#ffffff" opacity="0.9"/>
<circle cx="83" cy="633" r="3" fill="#ffffff" opacity="0.6"/>
<circle cx="556" cy="756" r="1" fill="#ffffff" opacity="0.6"/>
<circle cx="483" cy="398" r="1" fill="#ffffff" opacity="0.9"/>
<circle cx="714" cy="580" r="1" fill="#ffffff" opacity="0.9"/>
<circle cx="342" cy="67" r="1" fill="#ffffff" opacity="0.6"/>
<circle cx="834" cy="333" r="2" fill="#ffffff" opacity="0.75"/>
<circle cx="77" cy="226" r="2" fill="#ffffff" opacity="0.9"/>
<circle cx="332" cy="227" r="3" fill="#ffffff" opacity="0.75"/>
<circle cx="415" cy="668" r="2" fill="#ffffff" opacity="0.6"/>
<circle cx="281" cy="152" r="1" fill="#ffffff" opacity="0.9"/>
<circle cx="584" cy="561" r="1" fill="#ffffff" opacity="0.9"/>
<circle cx="608" cy="448" r="2" fill="#ffffff" opacity="0.75"/>
<circle cx="380" cy="234" r="1" fill="#ffffff" opacity="0.9"/>
<circle cx="515" cy="103" r="1" fill="#ffffff" opacity="0.6"/>
<circle cx="166" cy="652" r="1" fill="#ffffff" opacity="0.9"/>

</svg>