<svg xmlns="http://www.w3.org/2000/svg" width="1024" height="768" viewBox="0 0 1024 768">
  <rect x="62.0" y="430.0" width="36.0" height="220.0" rx="7.2" fill="#3e2a1c"/>
<path d="M199.0,430.0 L129.6,559.9 L-7.6,484.1 L15.2,390.0 L123.2,317.0 Z" fill="#1d4536"/>
<rect x="283.0" y="430.0" width="34.0" height="230.0" rx="6.8" fill="#3e2a1c"/>
<path d="M427.5,430.0 L353.2,569.1 L206.2,488.0 L230.6,387.1 L346.3,309.0 Z" fill="#1d4536"/>
<rect x="623.0" y="430.0" width="34.0" height="225.0" rx="6.8" fill="#3e2a1c"/>
<path d="M763.2,430.0 L691.4,564.5 L549.3,486.0 L572.9,388.5 L684.7,313.0 Z" fill="#1d4536"/>
<rect x="882.0" y="430.0" width="36.0" height="230.0" rx="7.2" fill="#3e2a1c"/>
<path d="M1027.5,430.0 L953.2,569.1 L806.2,488.0 L830.6,387.1 L946.3,309.0 Z" fill="#1d4536"/>
</svg>