<svg xmlns="http://www.w3.org/2000/svg" width="1024" height="768" viewBox="0 0 1024 768">
  <rect x="126.0" y="440.0" width="28.0" height="180.0" rx="5.6" fill="#3e2a1c"/>
<path d="M233.5,440.0 L179.0,542.0 L71.2,482.5 L89.1,408.6 L173.9,351.2 Z" fill="#163a2e"/>
<rect x="327.0" y="440.0" width="26.0" height="200.0" rx="5.2" fill="#3e2a1c"/>
<path d="M442.0,440.0 L382.6,551.3 L264.9,486.4 L284.4,405.7 L377.0,343.2 Z" fill="#163a2e"/>
<rect x="548.0" y="440.0" width="24.0" height="190.0" rx="4.8" fill="#3e2a1c"/>
<path d="M657.8,440.0 L600.8,546.7 L488.1,484.4 L506.8,407.1 L595.5,347.2 Z" fill="#163a2e"/>
<rect x="826.0" y="435.0" width="28.0" height="180.0" rx="5.6" fill="#3e2a1c"/>
<path d="M933.5,435.0 L879.0,537.0 L771.2,477.5 L789.1,403.6 L873.9,346.2 Z" fill="#163a2e"/>
</svg>